<svg width="202" height="50" viewBox="0 0 202 50" fill="none" xmlns="http://www.w3.org/2000/svg">
    <mask id="path-1-outside-1_93_13" maskUnits="userSpaceOnUse" x="-1" y="-2" width="204" height="53" fill="black">
        <rect fill="white" x="-1" y="-2" width="204" height="53" />
        <path
            d="M21.4082 28.5215H10.0703V45.8359L16.7207 46.5098V49H0.109375V46.5098L4.5625 45.8359V7.98438L0.109375 7.31055V4.82031H29.9336L30.6074 13.5215H28.0293L26.4473 8.36523H10.0703V24.9766H21.4082L22.2871 21.8711H24.1035V31.627H22.2871L21.4082 28.5215ZM62.8926 47.4766C60.041 48.9414 57.9805 49.6738 56.7109 49.6738C53.8594 49.6738 52.4336 48.4629 52.4336 46.041V45.1328C52.1602 45.543 51.4082 46.1387 50.1777 46.9199C48.9668 47.7012 48.0195 48.248 47.3359 48.5605C45.7148 49.3027 44.4844 49.6738 43.6445 49.6738C42.8047 49.6738 42.1113 49.6348 41.5645 49.5566C41.0176 49.498 40.4512 49.3711 39.8652 49.1758C39.2793 48.9805 38.7031 48.707 38.1367 48.3555C37.5703 48.0039 37.0625 47.5449 36.6133 46.9785C35.6172 45.7285 35.1191 44.0977 35.1191 42.0859C35.1191 39.3125 36.1055 37.3789 38.0781 36.2852C39.3281 35.5625 40.6465 35.1133 42.0332 34.9375C43.4395 34.7617 44.7188 34.625 45.8711 34.5273C48.0586 34.332 50.2461 34.2148 52.4336 34.1758V28.0234C52.4336 26.3242 52.2188 25.1914 51.7891 24.625C51.0664 23.6289 49.9434 23.1309 48.4199 23.1309C45.0215 23.1309 41.6816 24.2344 38.4004 26.4414L36.7012 23.8926C41.2715 20.8457 45.3633 19.3223 48.9766 19.3223C52.1211 19.3223 54.3477 20.1914 55.6562 21.9297C56.6719 23.2773 57.1797 25.1914 57.1797 27.6719V43.082C57.1797 44.5273 57.4531 45.3477 58 45.543C58.1953 45.6016 58.4492 45.6309 58.7617 45.6309C59.543 45.6309 60.7441 45.3281 62.3652 44.7227L62.8926 47.4766ZM52.4336 36.6367C46.8867 36.8516 43.332 37.4082 41.7695 38.3066C40.5781 38.9902 39.9824 40.0938 39.9824 41.6172C39.9824 43.8242 40.832 45.1816 42.5312 45.6895C43 45.8262 43.5664 45.8945 44.2305 45.8945C44.9141 45.8945 45.7051 45.7578 46.6035 45.4844C47.502 45.2109 48.332 44.8789 49.0938 44.4883C50.5391 43.7852 51.6523 43.1016 52.4336 42.4375V36.6367ZM68.0488 5.55273L64.2402 4.82031V2.44727L72.8242 0.279297V23.1309C74.7383 21.7832 76.5742 20.8164 78.332 20.2305C80.1094 19.625 81.7891 19.3223 83.3711 19.3223C84.9727 19.3223 86.5352 19.6934 88.0586 20.4355C89.582 21.1582 90.8711 22.1641 91.9258 23.4531C94.1328 26.1484 95.2363 29.5957 95.2363 33.7949C95.2363 38.1504 93.9375 41.8125 91.3398 44.7812C88.5273 48.043 84.7188 49.6738 79.9141 49.6738C76.8281 49.6738 73.9277 48.9316 71.2129 47.4473C70.002 46.8027 68.9473 46.0508 68.0488 45.1914V5.55273ZM81.291 23.1309C78.6543 23.1309 75.832 24.1367 72.8242 26.1484V42.877C74.5039 45.123 77.1699 46.2461 80.8223 46.2461C83.6348 46.2461 85.9199 45.1719 87.6777 43.0234C89.3184 41.0312 90.1387 38.541 90.1387 35.5527C90.1387 30.0449 88.5273 26.2656 85.3047 24.2148C84.1914 23.4922 82.8535 23.1309 81.291 23.1309ZM101.096 34.7617C101.096 32.5156 101.477 30.4258 102.238 28.4922C103.02 26.5586 104.074 24.918 105.402 23.5703C108.137 20.7383 111.506 19.3223 115.51 19.3223C120.158 19.3223 123.791 20.6992 126.408 23.4531C128.889 26.0898 130.129 29.5371 130.129 33.7949C130.129 38.541 128.723 42.3984 125.91 45.3672C123.176 48.2383 119.797 49.6738 115.773 49.6738C111.184 49.6738 107.551 48.2578 104.875 45.4258C102.355 42.7695 101.096 39.2148 101.096 34.7617ZM108.596 26.0312C107.814 27.0273 107.219 28.1992 106.809 29.5469C106.418 30.8945 106.223 32.3594 106.223 33.9414C106.223 35.5039 106.398 37.0371 106.75 38.541C107.121 40.0254 107.688 41.3438 108.449 42.4961C110.129 44.9961 112.551 46.2461 115.715 46.2461C118.684 46.2461 120.988 45.2695 122.629 43.3164C124.25 41.4023 125.061 38.8145 125.061 35.5527C125.061 29.7715 123.41 25.8848 120.109 23.8926C118.879 23.1504 117.424 22.7793 115.744 22.7793C114.064 22.7793 112.648 23.0723 111.496 23.6582C110.344 24.2246 109.377 25.0156 108.596 26.0312ZM136.076 34.7617C136.076 32.5156 136.457 30.4258 137.219 28.4922C138 26.5586 139.055 24.918 140.383 23.5703C143.117 20.7383 146.486 19.3223 150.49 19.3223C155.139 19.3223 158.771 20.6992 161.389 23.4531C163.869 26.0898 165.109 29.5371 165.109 33.7949C165.109 38.541 163.703 42.3984 160.891 45.3672C158.156 48.2383 154.777 49.6738 150.754 49.6738C146.164 49.6738 142.531 48.2578 139.855 45.4258C137.336 42.7695 136.076 39.2148 136.076 34.7617ZM143.576 26.0312C142.795 27.0273 142.199 28.1992 141.789 29.5469C141.398 30.8945 141.203 32.3594 141.203 33.9414C141.203 35.5039 141.379 37.0371 141.73 38.541C142.102 40.0254 142.668 41.3438 143.43 42.4961C145.109 44.9961 147.531 46.2461 150.695 46.2461C153.664 46.2461 155.969 45.2695 157.609 43.3164C159.23 41.4023 160.041 38.8145 160.041 35.5527C160.041 29.7715 158.391 25.8848 155.09 23.8926C153.859 23.1504 152.404 22.7793 150.725 22.7793C149.045 22.7793 147.629 23.0723 146.477 23.6582C145.324 24.2246 144.357 25.0156 143.576 26.0312ZM178.498 45.8945L182.219 46.5684V49H169.914V46.5684L173.723 45.8945V5.55273L169.914 4.82031V2.44727L178.498 0.279297V45.8945ZM191.828 23.0723L189.221 22.457V20.0254H200.969V22.457L196.398 23.1309L184.006 32.6523L196.311 45.1328L198.215 46.0996L201.379 46.5684V49H193.146L178.732 33.4141L191.828 23.0723Z" />
    </mask>
    <path
        d="M21.4082 28.5215H10.0703V45.8359L16.7207 46.5098V49H0.109375V46.5098L4.5625 45.8359V7.98438L0.109375 7.31055V4.82031H29.9336L30.6074 13.5215H28.0293L26.4473 8.36523H10.0703V24.9766H21.4082L22.2871 21.8711H24.1035V31.627H22.2871L21.4082 28.5215ZM62.8926 47.4766C60.041 48.9414 57.9805 49.6738 56.7109 49.6738C53.8594 49.6738 52.4336 48.4629 52.4336 46.041V45.1328C52.1602 45.543 51.4082 46.1387 50.1777 46.9199C48.9668 47.7012 48.0195 48.248 47.3359 48.5605C45.7148 49.3027 44.4844 49.6738 43.6445 49.6738C42.8047 49.6738 42.1113 49.6348 41.5645 49.5566C41.0176 49.498 40.4512 49.3711 39.8652 49.1758C39.2793 48.9805 38.7031 48.707 38.1367 48.3555C37.5703 48.0039 37.0625 47.5449 36.6133 46.9785C35.6172 45.7285 35.1191 44.0977 35.1191 42.0859C35.1191 39.3125 36.1055 37.3789 38.0781 36.2852C39.3281 35.5625 40.6465 35.1133 42.0332 34.9375C43.4395 34.7617 44.7188 34.625 45.8711 34.5273C48.0586 34.332 50.2461 34.2148 52.4336 34.1758V28.0234C52.4336 26.3242 52.2188 25.1914 51.7891 24.625C51.0664 23.6289 49.9434 23.1309 48.4199 23.1309C45.0215 23.1309 41.6816 24.2344 38.4004 26.4414L36.7012 23.8926C41.2715 20.8457 45.3633 19.3223 48.9766 19.3223C52.1211 19.3223 54.3477 20.1914 55.6562 21.9297C56.6719 23.2773 57.1797 25.1914 57.1797 27.6719V43.082C57.1797 44.5273 57.4531 45.3477 58 45.543C58.1953 45.6016 58.4492 45.6309 58.7617 45.6309C59.543 45.6309 60.7441 45.3281 62.3652 44.7227L62.8926 47.4766ZM52.4336 36.6367C46.8867 36.8516 43.332 37.4082 41.7695 38.3066C40.5781 38.9902 39.9824 40.0938 39.9824 41.6172C39.9824 43.8242 40.832 45.1816 42.5312 45.6895C43 45.8262 43.5664 45.8945 44.2305 45.8945C44.9141 45.8945 45.7051 45.7578 46.6035 45.4844C47.502 45.2109 48.332 44.8789 49.0938 44.4883C50.5391 43.7852 51.6523 43.1016 52.4336 42.4375V36.6367ZM68.0488 5.55273L64.2402 4.82031V2.44727L72.8242 0.279297V23.1309C74.7383 21.7832 76.5742 20.8164 78.332 20.2305C80.1094 19.625 81.7891 19.3223 83.3711 19.3223C84.9727 19.3223 86.5352 19.6934 88.0586 20.4355C89.582 21.1582 90.8711 22.1641 91.9258 23.4531C94.1328 26.1484 95.2363 29.5957 95.2363 33.7949C95.2363 38.1504 93.9375 41.8125 91.3398 44.7812C88.5273 48.043 84.7188 49.6738 79.9141 49.6738C76.8281 49.6738 73.9277 48.9316 71.2129 47.4473C70.002 46.8027 68.9473 46.0508 68.0488 45.1914V5.55273ZM81.291 23.1309C78.6543 23.1309 75.832 24.1367 72.8242 26.1484V42.877C74.5039 45.123 77.1699 46.2461 80.8223 46.2461C83.6348 46.2461 85.9199 45.1719 87.6777 43.0234C89.3184 41.0312 90.1387 38.541 90.1387 35.5527C90.1387 30.0449 88.5273 26.2656 85.3047 24.2148C84.1914 23.4922 82.8535 23.1309 81.291 23.1309ZM101.096 34.7617C101.096 32.5156 101.477 30.4258 102.238 28.4922C103.02 26.5586 104.074 24.918 105.402 23.5703C108.137 20.7383 111.506 19.3223 115.51 19.3223C120.158 19.3223 123.791 20.6992 126.408 23.4531C128.889 26.0898 130.129 29.5371 130.129 33.7949C130.129 38.541 128.723 42.3984 125.91 45.3672C123.176 48.2383 119.797 49.6738 115.773 49.6738C111.184 49.6738 107.551 48.2578 104.875 45.4258C102.355 42.7695 101.096 39.2148 101.096 34.7617ZM108.596 26.0312C107.814 27.0273 107.219 28.1992 106.809 29.5469C106.418 30.8945 106.223 32.3594 106.223 33.9414C106.223 35.5039 106.398 37.0371 106.75 38.541C107.121 40.0254 107.688 41.3438 108.449 42.4961C110.129 44.9961 112.551 46.2461 115.715 46.2461C118.684 46.2461 120.988 45.2695 122.629 43.3164C124.25 41.4023 125.061 38.8145 125.061 35.5527C125.061 29.7715 123.41 25.8848 120.109 23.8926C118.879 23.1504 117.424 22.7793 115.744 22.7793C114.064 22.7793 112.648 23.0723 111.496 23.6582C110.344 24.2246 109.377 25.0156 108.596 26.0312ZM136.076 34.7617C136.076 32.5156 136.457 30.4258 137.219 28.4922C138 26.5586 139.055 24.918 140.383 23.5703C143.117 20.7383 146.486 19.3223 150.49 19.3223C155.139 19.3223 158.771 20.6992 161.389 23.4531C163.869 26.0898 165.109 29.5371 165.109 33.7949C165.109 38.541 163.703 42.3984 160.891 45.3672C158.156 48.2383 154.777 49.6738 150.754 49.6738C146.164 49.6738 142.531 48.2578 139.855 45.4258C137.336 42.7695 136.076 39.2148 136.076 34.7617ZM143.576 26.0312C142.795 27.0273 142.199 28.1992 141.789 29.5469C141.398 30.8945 141.203 32.3594 141.203 33.9414C141.203 35.5039 141.379 37.0371 141.73 38.541C142.102 40.0254 142.668 41.3438 143.43 42.4961C145.109 44.9961 147.531 46.2461 150.695 46.2461C153.664 46.2461 155.969 45.2695 157.609 43.3164C159.23 41.4023 160.041 38.8145 160.041 35.5527C160.041 29.7715 158.391 25.8848 155.09 23.8926C153.859 23.1504 152.404 22.7793 150.725 22.7793C149.045 22.7793 147.629 23.0723 146.477 23.6582C145.324 24.2246 144.357 25.0156 143.576 26.0312ZM178.498 45.8945L182.219 46.5684V49H169.914V46.5684L173.723 45.8945V5.55273L169.914 4.82031V2.44727L178.498 0.279297V45.8945ZM191.828 23.0723L189.221 22.457V20.0254H200.969V22.457L196.398 23.1309L184.006 32.6523L196.311 45.1328L198.215 46.0996L201.379 46.5684V49H193.146L178.732 33.4141L191.828 23.0723Z"
        fill="#E85A4F" />
    <path
        d="M21.4082 28.5215L22.3704 28.2492L22.1645 27.5215H21.4082V28.5215ZM10.0703 28.5215V27.5215H9.07031V28.5215H10.0703ZM10.0703 45.8359H9.07031V46.7397L9.96951 46.8308L10.0703 45.8359ZM16.7207 46.5098H17.7207V45.606L16.8215 45.5149L16.7207 46.5098ZM16.7207 49V50H17.7207V49H16.7207ZM0.109375 49H-0.890625V50H0.109375V49ZM0.109375 46.5098L-0.0402377 45.521L-0.890625 45.6497V46.5098H0.109375ZM4.5625 45.8359L4.71211 46.8247L5.5625 46.696V45.8359H4.5625ZM4.5625 7.98438H5.5625V7.12431L4.71211 6.99563L4.5625 7.98438ZM0.109375 7.31055H-0.890625V8.17061L-0.0402377 8.29929L0.109375 7.31055ZM0.109375 4.82031V3.82031H-0.890625V4.82031H0.109375ZM29.9336 4.82031L30.9306 4.7431L30.8591 3.82031H29.9336V4.82031ZM30.6074 13.5215V14.5215H31.6879L31.6044 13.4443L30.6074 13.5215ZM28.0293 13.5215L27.0733 13.8148L27.2901 14.5215H28.0293V13.5215ZM26.4473 8.36523L27.4033 8.07191L27.1865 7.36523H26.4473V8.36523ZM10.0703 8.36523V7.36523H9.07031V8.36523H10.0703ZM10.0703 24.9766H9.07031V25.9766H10.0703V24.9766ZM21.4082 24.9766V25.9766H22.1645L22.3704 25.2489L21.4082 24.9766ZM22.2871 21.8711V20.8711H21.5308L21.3249 21.5988L22.2871 21.8711ZM24.1035 21.8711H25.1035V20.8711H24.1035V21.8711ZM24.1035 31.627V32.627H25.1035V31.627H24.1035ZM22.2871 31.627L21.3249 31.8993L21.5308 32.627H22.2871V31.627ZM21.4082 27.5215H10.0703V29.5215H21.4082V27.5215ZM9.07031 28.5215V45.8359H11.0703V28.5215H9.07031ZM9.96951 46.8308L16.6199 47.5047L16.8215 45.5149L10.1711 44.841L9.96951 46.8308ZM15.7207 46.5098V49H17.7207V46.5098H15.7207ZM16.7207 48H0.109375V50H16.7207V48ZM1.10938 49V46.5098H-0.890625V49H1.10938ZM0.258988 47.4985L4.71211 46.8247L4.41289 44.8472L-0.0402377 45.521L0.258988 47.4985ZM5.5625 45.8359V7.98438H3.5625V45.8359H5.5625ZM4.71211 6.99563L0.258988 6.3218L-0.0402377 8.29929L4.41289 8.97312L4.71211 6.99563ZM1.10938 7.31055V4.82031H-0.890625V7.31055H1.10938ZM0.109375 5.82031H29.9336V3.82031H0.109375V5.82031ZM28.9366 4.89752L29.6104 13.5987L31.6044 13.4443L30.9306 4.7431L28.9366 4.89752ZM30.6074 12.5215H28.0293V14.5215H30.6074V12.5215ZM28.9853 13.2282L27.4033 8.07191L25.4913 8.65856L27.0733 13.8148L28.9853 13.2282ZM26.4473 7.36523H10.0703V9.36523H26.4473V7.36523ZM9.07031 8.36523V24.9766H11.0703V8.36523H9.07031ZM10.0703 25.9766H21.4082V23.9766H10.0703V25.9766ZM22.3704 25.2489L23.2493 22.1434L21.3249 21.5988L20.446 24.7042L22.3704 25.2489ZM22.2871 22.8711H24.1035V20.8711H22.2871V22.8711ZM23.1035 21.8711V31.627H25.1035V21.8711H23.1035ZM24.1035 30.627H22.2871V32.627H24.1035V30.627ZM23.2493 31.3546L22.3704 28.2492L20.446 28.7938L21.3249 31.8993L23.2493 31.3546ZM62.8926 47.4766L63.3495 48.3661L64.0156 48.0239L63.8747 47.2885L62.8926 47.4766ZM52.4336 45.1328H53.4336V41.83L51.6015 44.5781L52.4336 45.1328ZM50.1777 46.9199L49.6417 46.0757L49.6356 46.0796L50.1777 46.9199ZM47.3359 48.5605L46.9202 47.6511L46.9197 47.6513L47.3359 48.5605ZM41.5645 49.5566L41.7059 48.5667L41.6885 48.5642L41.671 48.5623L41.5645 49.5566ZM36.6133 46.9785L37.3968 46.3571L37.3953 46.3553L36.6133 46.9785ZM38.0781 36.2852L38.563 37.1597L38.5709 37.1554L38.5786 37.1509L38.0781 36.2852ZM42.0332 34.9375L41.9092 33.9452L41.9074 33.9454L42.0332 34.9375ZM45.8711 34.5273L45.9555 35.5238L45.96 35.5234L45.8711 34.5273ZM52.4336 34.1758L52.4514 35.1756L53.4336 35.1581V34.1758H52.4336ZM51.7891 24.625L50.9796 25.2122L50.9859 25.2209L50.9924 25.2294L51.7891 24.625ZM38.4004 26.4414L37.5683 26.9961L38.1253 27.8316L38.9585 27.2712L38.4004 26.4414ZM36.7012 23.8926L36.1465 23.0605L35.3144 23.6152L35.8691 24.4473L36.7012 23.8926ZM55.6562 21.9297L54.8573 22.5311L54.8576 22.5315L55.6562 21.9297ZM58 45.543L57.6637 46.4847L57.688 46.4934L57.7127 46.5008L58 45.543ZM62.3652 44.7227L63.3474 44.5346L63.1247 43.3715L62.0154 43.7859L62.3652 44.7227ZM52.4336 36.6367H53.4336V35.5972L52.3949 35.6375L52.4336 36.6367ZM41.7695 38.3066L42.2672 39.174L42.268 39.1735L41.7695 38.3066ZM42.5312 45.6895L42.2449 46.6476L42.2513 46.6495L42.5312 45.6895ZM49.0938 44.4883L48.6563 43.589L48.6468 43.5937L48.6374 43.5985L49.0938 44.4883ZM52.4336 42.4375L53.0812 43.1994L53.4336 42.8999V42.4375H52.4336ZM62.4356 46.5871C61.0329 47.3076 59.8477 47.836 58.8736 48.1823C57.8848 48.5337 57.1779 48.6738 56.7109 48.6738V50.6738C57.5135 50.6738 58.4716 50.4477 59.5434 50.0668C60.6298 49.6806 61.9006 49.1103 63.3495 48.3661L62.4356 46.5871ZM56.7109 48.6738C55.403 48.6738 54.6086 48.3927 54.1503 48.0034C53.7233 47.6408 53.4336 47.0512 53.4336 46.041H51.4336C51.4336 47.4527 51.8568 48.6796 52.8556 49.5278C53.8231 50.3495 55.1673 50.6738 56.7109 50.6738V48.6738ZM53.4336 46.041V45.1328H51.4336V46.041H53.4336ZM51.6015 44.5781C51.5546 44.6486 51.3998 44.8212 51.0436 45.1034C50.705 45.3716 50.241 45.6952 49.6417 46.0757L50.7137 47.7641C51.345 47.3634 51.8722 46.9985 52.2855 46.671C52.6813 46.3575 53.0392 46.0272 53.2656 45.6875L51.6015 44.5781ZM49.6356 46.0796C48.4356 46.8538 47.5368 47.3692 46.9202 47.6511L47.7517 49.47C48.5023 49.1269 49.498 48.5485 50.7199 47.7602L49.6356 46.0796ZM46.9197 47.6513C45.3148 48.3861 44.2532 48.6738 43.6445 48.6738V50.6738C44.7156 50.6738 46.1149 50.2194 47.7522 49.4698L46.9197 47.6513ZM43.6445 48.6738C42.8304 48.6738 42.1885 48.6356 41.7059 48.5667L41.423 50.5466C42.0342 50.6339 42.779 50.6738 43.6445 50.6738V48.6738ZM41.671 48.5623C41.2035 48.5122 40.7075 48.4025 40.1815 48.2271L39.549 50.1245C40.1948 50.3397 40.8316 50.4838 41.4579 50.5509L41.671 48.5623ZM40.1815 48.2271C39.6751 48.0583 39.1694 47.8195 38.6641 47.5058L37.6094 49.2051C38.2368 49.5946 38.8835 49.9026 39.549 50.1245L40.1815 48.2271ZM38.6641 47.5058C38.2035 47.22 37.7805 46.8409 37.3968 46.3571L35.8298 47.5999C36.3445 48.249 36.9371 48.7879 37.6094 49.2051L38.6641 47.5058ZM37.3953 46.3553C36.5736 45.3241 36.1191 43.931 36.1191 42.0859H34.1191C34.1191 44.2643 34.6608 46.133 35.8312 47.6017L37.3953 46.3553ZM36.1191 42.0859C36.1191 39.5775 36.986 38.0341 38.563 37.1597L37.5932 35.4106C35.225 36.7237 34.1191 39.0475 34.1191 42.0859H36.1191ZM38.5786 37.1509C39.7172 36.4926 40.9087 36.088 42.159 35.9296L41.9074 33.9454C40.3843 34.1385 38.939 34.6324 37.5776 35.4194L38.5786 37.1509ZM42.1572 35.9298C43.5531 35.7553 44.819 35.6201 45.9555 35.5238L45.7867 33.5309C44.6185 33.6299 43.3258 33.7681 41.9092 33.9452L42.1572 35.9298ZM45.96 35.5234C48.124 35.3302 50.2878 35.2143 52.4514 35.1756L52.4157 33.1759C50.2044 33.2154 47.9932 33.3339 45.7822 33.5313L45.96 35.5234ZM53.4336 34.1758V28.0234H51.4336V34.1758H53.4336ZM53.4336 28.0234C53.4336 27.1377 53.3781 26.3623 53.2549 25.7131C53.1346 25.0786 52.9346 24.4805 52.5858 24.0206L50.9924 25.2294C51.0732 25.3359 51.1955 25.5874 51.29 26.0857C51.3817 26.5693 51.4336 27.2099 51.4336 28.0234H53.4336ZM52.5985 24.0378C51.6427 22.7203 50.1784 22.1309 48.4199 22.1309V24.1309C49.7083 24.1309 50.4902 24.5375 50.9796 25.2122L52.5985 24.0378ZM48.4199 22.1309C44.7917 22.1309 41.2608 23.3123 37.8423 25.6116L38.9585 27.2712C42.1025 25.1565 45.2512 24.1309 48.4199 24.1309V22.1309ZM39.2324 25.8867L37.5332 23.3379L35.8691 24.4473L37.5683 26.9961L39.2324 25.8867ZM37.2559 24.7246C41.7417 21.7341 45.6386 20.3223 48.9766 20.3223V18.3223C45.0879 18.3223 40.8013 19.9573 36.1465 23.0605L37.2559 24.7246ZM48.9766 20.3223C51.954 20.3223 53.8114 21.1417 54.8573 22.5311L56.4552 21.3283C54.8839 19.2411 52.2882 18.3223 48.9766 18.3223V20.3223ZM54.8576 22.5315C55.6939 23.6412 56.1797 25.3108 56.1797 27.6719H58.1797C58.1797 25.0721 57.6498 22.9135 56.4549 21.3278L54.8576 22.5315ZM56.1797 27.6719V43.082H58.1797V27.6719H56.1797ZM56.1797 43.082C56.1797 43.8502 56.2502 44.5397 56.4361 45.0975C56.621 45.6521 56.9809 46.2409 57.6637 46.4847L58.3363 44.6012C58.4722 44.6497 58.422 44.7307 58.3335 44.465C58.2459 44.2025 58.1797 43.7592 58.1797 43.082H56.1797ZM57.7127 46.5008C58.0368 46.598 58.3978 46.6309 58.7617 46.6309V44.6309C58.5006 44.6309 58.3538 44.6051 58.2873 44.5851L57.7127 46.5008ZM58.7617 46.6309C59.7373 46.6309 61.0849 46.2683 62.7151 45.6594L62.0154 43.7859C60.4034 44.3879 59.3486 44.6309 58.7617 44.6309V46.6309ZM61.3831 44.9107L61.9104 47.6646L63.8747 47.2885L63.3474 44.5346L61.3831 44.9107ZM52.3949 35.6375C49.601 35.7457 47.2832 35.9407 45.4527 36.2274C43.6504 36.5096 42.2188 36.8948 41.2711 37.4397L42.268 39.1735C42.8828 38.8201 44.0097 38.4777 45.7621 38.2033C47.4864 37.9333 49.7193 37.7426 52.4723 37.636L52.3949 35.6375ZM41.2719 37.4393C39.7308 38.3235 38.9824 39.7829 38.9824 41.6172H40.9824C40.9824 40.4046 41.4255 39.657 42.2672 39.174L41.2719 37.4393ZM38.9824 41.6172C38.9824 42.84 39.2167 43.9339 39.772 44.8211C40.3399 45.7284 41.1894 46.3321 42.2449 46.6476L42.8176 44.7313C42.1739 44.539 41.749 44.2101 41.4673 43.76C41.1729 43.2897 40.9824 42.6014 40.9824 41.6172H38.9824ZM42.2513 46.6495C42.837 46.8203 43.5032 46.8945 44.2305 46.8945V44.8945C43.6296 44.8945 43.163 44.8321 42.8112 44.7295L42.2513 46.6495ZM44.2305 46.8945C45.0418 46.8945 45.9344 46.7333 46.8947 46.441L46.3124 44.5277C45.4757 44.7823 44.7863 44.8945 44.2305 44.8945V46.8945ZM46.8947 46.441C47.8446 46.1519 48.7306 45.7983 49.5501 45.3781L48.6374 43.5985C47.9335 43.9595 47.1593 44.2699 46.3124 44.5277L46.8947 46.441ZM49.5312 45.3875C51.0146 44.6659 52.2105 43.9396 53.0812 43.1994L51.7859 41.6756C51.0942 42.2636 50.0636 42.9044 48.6563 43.589L49.5312 45.3875ZM53.4336 42.4375V36.6367H51.4336V42.4375H53.4336ZM68.0488 5.55273H69.0488V4.72672L68.2377 4.57073L68.0488 5.55273ZM64.2402 4.82031H63.2402V5.64633L64.0514 5.80232L64.2402 4.82031ZM64.2402 2.44727L63.9954 1.47771L63.2402 1.66843V2.44727H64.2402ZM72.8242 0.279297H73.8242V-1.00466L72.5793 -0.690259L72.8242 0.279297ZM72.8242 23.1309H71.8242V25.0579L73.3999 23.9485L72.8242 23.1309ZM78.332 20.2305L78.6483 21.1792L78.6545 21.1771L78.332 20.2305ZM88.0586 20.4355L87.6206 21.3346L87.63 21.339L88.0586 20.4355ZM91.9258 23.4531L91.1518 24.0864L91.1521 24.0867L91.9258 23.4531ZM91.3398 44.7812L90.5872 44.1227L90.5825 44.1282L91.3398 44.7812ZM71.2129 47.4473L71.6927 46.5698L71.6827 46.5645L71.2129 47.4473ZM68.0488 45.1914H67.0488V45.6187L67.3576 45.914L68.0488 45.1914ZM72.8242 26.1484L72.2683 25.3172L71.8242 25.6142V26.1484H72.8242ZM72.8242 42.877H71.8242V43.2095L72.0234 43.4758L72.8242 42.877ZM87.6777 43.0234L86.9058 42.3877L86.9038 42.3902L87.6777 43.0234ZM85.3047 24.2148L84.7602 25.0537L84.7678 25.0585L85.3047 24.2148ZM68.2377 4.57073L64.4291 3.83831L64.0514 5.80232L67.86 6.53474L68.2377 4.57073ZM65.2402 4.82031V2.44727H63.2402V4.82031H65.2402ZM64.4851 3.41682L73.0691 1.24885L72.5793 -0.690259L63.9954 1.47771L64.4851 3.41682ZM71.8242 0.279297V23.1309H73.8242V0.279297H71.8242ZM73.3999 23.9485C75.2543 22.6429 77.0034 21.7274 78.6483 21.1792L78.0158 19.2818C76.145 19.9054 74.2223 20.9235 72.2485 22.3132L73.3999 23.9485ZM78.6545 21.1771C80.3469 20.6005 81.9171 20.3223 83.3711 20.3223V18.3223C81.6611 18.3223 79.8719 18.6495 78.0096 19.2839L78.6545 21.1771ZM83.3711 20.3223C84.8121 20.3223 86.2255 20.6549 87.6206 21.3345L88.4966 19.5366C86.8448 18.7319 85.1332 18.3223 83.3711 18.3223V20.3223ZM87.63 21.339C89.0215 21.9991 90.192 22.9133 91.1518 24.0864L92.6997 22.8199C91.5501 21.4148 90.1426 20.3173 88.4872 19.532L87.63 21.339ZM91.1521 24.0867C93.1843 26.5685 94.2363 29.7774 94.2363 33.7949H96.2363C96.2363 29.414 95.0813 25.7283 92.6995 22.8196L91.1521 24.0867ZM94.2363 33.7949C94.2363 37.9353 93.0084 41.3557 90.5873 44.1227L92.0924 45.4398C94.8666 42.2693 96.2363 38.3655 96.2363 33.7949H94.2363ZM90.5825 44.1282C87.9833 47.1426 84.4656 48.6738 79.9141 48.6738V50.6738C84.9719 50.6738 89.0714 48.9433 92.0972 45.4343L90.5825 44.1282ZM79.9141 48.6738C76.9963 48.6738 74.2608 47.974 71.6926 46.5699L70.7332 48.3247C73.5947 49.8893 76.66 50.6738 79.9141 50.6738V48.6738ZM71.6827 46.5645C70.5443 45.9586 69.5659 45.2587 68.7401 44.4688L67.3576 45.914C68.3286 46.8428 69.4596 47.6469 70.743 48.33L71.6827 46.5645ZM69.0488 45.1914V5.55273H67.0488V45.1914H69.0488ZM81.291 22.1309C78.3952 22.1309 75.3812 23.2352 72.2683 25.3172L73.3802 26.9797C76.2829 25.0382 78.9134 24.1309 81.291 24.1309V22.1309ZM71.8242 26.1484V42.877H73.8242V26.1484H71.8242ZM72.0234 43.4758C73.9466 46.0476 76.9589 47.2461 80.8223 47.2461V45.2461C77.3809 45.2461 75.0612 44.1985 73.6251 42.2781L72.0234 43.4758ZM80.8223 47.2461C83.9301 47.2461 86.5011 46.0408 88.4517 43.6567L86.9038 42.3902C85.3388 44.303 83.3394 45.2461 80.8223 45.2461V47.2461ZM88.4497 43.6591C90.2605 41.4603 91.1387 38.7344 91.1387 35.5527H89.1387C89.1387 38.3476 88.3762 40.6022 86.9058 42.3877L88.4497 43.6591ZM91.1387 35.5527C91.1387 29.867 89.4681 25.679 85.8416 23.3712L84.7678 25.0585C87.5866 26.8523 89.1387 30.2229 89.1387 35.5527H91.1387ZM85.8492 23.3761C84.5468 22.5307 83.0119 22.1309 81.291 22.1309V24.1309C82.6951 24.1309 83.836 24.4537 84.7602 25.0536L85.8492 23.3761ZM102.238 28.4922L101.311 28.1176L101.308 28.1257L102.238 28.4922ZM105.402 23.5703L106.115 24.2723L106.122 24.2649L105.402 23.5703ZM126.408 23.4531L127.137 22.7679L127.133 22.7642L126.408 23.4531ZM125.91 45.3672L126.634 46.0568L126.636 46.0549L125.91 45.3672ZM104.875 45.4258L105.602 44.739L105.601 44.7376L104.875 45.4258ZM108.596 26.0312L109.383 26.6484L109.388 26.641L108.596 26.0312ZM106.809 29.5469L105.852 29.2557L105.848 29.2685L106.809 29.5469ZM106.75 38.541L105.776 38.7686L105.778 38.7761L105.78 38.7836L106.75 38.541ZM108.449 42.4961L107.615 43.0475L107.619 43.0538L108.449 42.4961ZM122.629 43.3164L121.866 42.6701L121.863 42.6732L122.629 43.3164ZM120.109 23.8926L120.626 23.0364L120.626 23.0363L120.109 23.8926ZM111.496 23.6582L111.937 24.5557L111.949 24.5496L111.496 23.6582ZM102.096 34.7617C102.096 32.6309 102.457 30.6665 103.169 28.8587L101.308 28.1257C100.497 30.1851 100.096 32.4004 100.096 34.7617H102.096ZM103.165 28.8668C103.902 27.0429 104.888 25.5169 106.115 24.2722L104.69 22.8684C103.26 24.3191 102.137 26.0743 101.311 28.1176L103.165 28.8668ZM106.122 24.2649C108.664 21.6318 111.772 20.3223 115.51 20.3223V18.3223C111.24 18.3223 107.609 19.8448 104.683 22.8757L106.122 24.2649ZM115.51 20.3223C119.95 20.3223 123.296 21.6298 125.683 24.142L127.133 22.7642C124.286 19.7686 120.367 18.3223 115.51 18.3223V20.3223ZM125.68 24.1383C127.956 26.5574 129.129 29.7439 129.129 33.7949H131.129C131.129 29.3303 129.822 25.6223 127.137 22.7679L125.68 24.1383ZM129.129 33.7949C129.129 38.3292 127.793 41.9261 125.184 44.6794L126.636 46.0549C129.653 42.8707 131.129 38.7528 131.129 33.7949H129.129ZM125.186 44.6775C122.644 47.3472 119.528 48.6738 115.773 48.6738V50.6738C120.066 50.6738 123.708 49.1294 126.634 46.0568L125.186 44.6775ZM115.773 48.6738C111.405 48.6738 108.055 47.3355 105.602 44.739L104.148 46.1126C107.046 49.1801 110.962 50.6738 115.773 50.6738V48.6738ZM105.601 44.7376C103.294 42.3057 102.096 39.0173 102.096 34.7617H100.096C100.096 39.4124 101.417 43.2334 104.149 46.114L105.601 44.7376ZM107.809 25.4141C106.943 26.5178 106.294 27.8031 105.852 29.2557L107.765 29.838C108.143 28.5953 108.686 27.5369 109.383 26.6484L107.809 25.4141ZM105.848 29.2685C105.428 30.7173 105.223 32.277 105.223 33.9414H107.223C107.223 32.4418 107.408 31.0718 107.769 29.8253L105.848 29.2685ZM105.223 33.9414C105.223 35.5796 105.407 37.1892 105.776 38.7686L107.724 38.3134C107.39 36.885 107.223 35.4282 107.223 33.9414H105.223ZM105.78 38.7836C106.175 40.3661 106.784 41.791 107.615 43.0475L109.283 41.9447C108.591 40.8965 108.067 39.6847 107.72 38.2985L105.78 38.7836ZM107.619 43.0538C109.496 45.8465 112.238 47.2461 115.715 47.2461V45.2461C112.864 45.2461 110.762 44.1457 109.279 41.9384L107.619 43.0538ZM115.715 47.2461C118.925 47.2461 121.532 46.1771 123.395 43.9596L121.863 42.6732C120.445 44.3619 118.442 45.2461 115.715 45.2461V47.2461ZM123.392 43.9627C125.207 41.8196 126.061 38.9788 126.061 35.5527H124.061C124.061 38.6501 123.293 40.9851 121.866 42.6701L123.392 43.9627ZM126.061 35.5527C126.061 29.6099 124.359 25.2895 120.626 23.0364L119.593 24.7487C122.461 26.48 124.061 29.9331 124.061 35.5527H126.061ZM120.626 23.0363C119.215 22.1852 117.575 21.7793 115.744 21.7793V23.7793C117.273 23.7793 118.543 24.1156 119.593 24.7489L120.626 23.0363ZM115.744 21.7793C113.952 21.7793 112.371 22.0914 111.043 22.7668L111.949 24.5496C112.926 24.0532 114.176 23.7793 115.744 23.7793V21.7793ZM111.055 22.7608C109.765 23.3947 108.678 24.284 107.803 25.4215L109.388 26.641C110.076 25.7472 110.922 25.0545 111.937 24.5557L111.055 22.7608ZM137.219 28.4922L136.292 28.1176L136.288 28.1257L137.219 28.4922ZM140.383 23.5703L141.095 24.2723L141.102 24.2649L140.383 23.5703ZM161.389 23.4531L162.117 22.7679L162.114 22.7642L161.389 23.4531ZM160.891 45.3672L161.615 46.0568L161.617 46.0549L160.891 45.3672ZM139.855 45.4258L140.582 44.739L140.581 44.7376L139.855 45.4258ZM143.576 26.0312L144.363 26.6484L144.369 26.641L143.576 26.0312ZM141.789 29.5469L140.832 29.2557L140.829 29.2685L141.789 29.5469ZM141.73 38.541L140.757 38.7686L140.758 38.7761L140.76 38.7836L141.73 38.541ZM143.43 42.4961L142.595 43.0475L142.6 43.0538L143.43 42.4961ZM157.609 43.3164L156.846 42.6701L156.844 42.6732L157.609 43.3164ZM155.09 23.8926L155.607 23.0364L155.606 23.0363L155.09 23.8926ZM146.477 23.6582L146.918 24.5557L146.93 24.5496L146.477 23.6582ZM137.076 34.7617C137.076 32.6309 137.437 30.6665 138.149 28.8587L136.288 28.1257C135.477 30.1851 135.076 32.4004 135.076 34.7617H137.076ZM138.146 28.8668C138.883 27.0429 139.868 25.5169 141.095 24.2722L139.671 22.8684C138.241 24.3191 137.117 26.0743 136.292 28.1176L138.146 28.8668ZM141.102 24.2649C143.645 21.6318 146.752 20.3223 150.49 20.3223V18.3223C146.22 18.3223 142.59 19.8448 139.663 22.8757L141.102 24.2649ZM150.49 20.3223C154.93 20.3223 158.276 21.6298 160.664 24.142L162.114 22.7642C159.267 19.7686 155.347 18.3223 150.49 18.3223V20.3223ZM160.66 24.1383C162.936 26.5574 164.109 29.7439 164.109 33.7949H166.109C166.109 29.3303 164.802 25.6223 162.117 22.7679L160.66 24.1383ZM164.109 33.7949C164.109 38.3292 162.773 41.9261 160.165 44.6794L161.617 46.0549C164.633 42.8707 166.109 38.7528 166.109 33.7949H164.109ZM160.166 44.6775C157.624 47.3472 154.508 48.6738 150.754 48.6738V50.6738C155.046 50.6738 158.689 49.1294 161.615 46.0568L160.166 44.6775ZM150.754 48.6738C146.386 48.6738 143.036 47.3355 140.582 44.739L139.129 46.1126C142.027 49.1801 145.942 50.6738 150.754 50.6738V48.6738ZM140.581 44.7376C138.274 42.3057 137.076 39.0173 137.076 34.7617H135.076C135.076 39.4124 136.398 43.2334 139.13 46.114L140.581 44.7376ZM142.789 25.4141C141.924 26.5178 141.274 27.8031 140.832 29.2557L142.746 29.838C143.124 28.5953 143.666 27.5369 144.363 26.6484L142.789 25.4141ZM140.829 29.2685C140.409 30.7173 140.203 32.277 140.203 33.9414H142.203C142.203 32.4418 142.388 31.0718 142.75 29.8253L140.829 29.2685ZM140.203 33.9414C140.203 35.5796 140.388 37.1892 140.757 38.7686L142.704 38.3134C142.37 36.885 142.203 35.4282 142.203 33.9414H140.203ZM140.76 38.7836C141.156 40.3661 141.765 41.791 142.595 43.0475L144.264 41.9447C143.571 40.8965 143.047 39.6847 142.701 38.2985L140.76 38.7836ZM142.6 43.0538C144.476 45.8465 147.218 47.2461 150.695 47.2461V45.2461C147.844 45.2461 145.743 44.1457 144.26 41.9384L142.6 43.0538ZM150.695 47.2461C153.906 47.2461 156.512 46.1771 158.375 43.9596L156.844 42.6732C155.425 44.3619 153.423 45.2461 150.695 45.2461V47.2461ZM158.372 43.9627C160.188 41.8196 161.041 38.9788 161.041 35.5527H159.041C159.041 38.6501 158.273 40.9851 156.846 42.6701L158.372 43.9627ZM161.041 35.5527C161.041 29.6099 159.34 25.2895 155.607 23.0364L154.573 24.7487C157.442 26.48 159.041 29.9331 159.041 35.5527H161.041ZM155.606 23.0363C154.195 22.1852 152.555 21.7793 150.725 21.7793V23.7793C152.253 23.7793 153.523 24.1156 154.573 24.7489L155.606 23.0363ZM150.725 21.7793C148.933 21.7793 147.352 22.0914 146.023 22.7668L146.93 24.5496C147.906 24.0532 149.157 23.7793 150.725 23.7793V21.7793ZM146.035 22.7608C144.746 23.3947 143.659 24.284 142.784 25.4215L144.369 26.641C145.056 25.7472 145.903 25.0545 146.918 24.5557L146.035 22.7608ZM178.498 45.8945H177.498V46.7297L178.32 46.8785L178.498 45.8945ZM182.219 46.5684H183.219V45.7332L182.397 45.5844L182.219 46.5684ZM182.219 49V50H183.219V49H182.219ZM169.914 49H168.914V50H169.914V49ZM169.914 46.5684L169.74 45.5837L168.914 45.7298V46.5684H169.914ZM173.723 45.8945L173.897 46.8792L174.723 46.7331V45.8945H173.723ZM173.723 5.55273H174.723V4.72672L173.911 4.57073L173.723 5.55273ZM169.914 4.82031H168.914V5.64633L169.725 5.80232L169.914 4.82031ZM169.914 2.44727L169.669 1.47771L168.914 1.66843V2.44727H169.914ZM178.498 0.279297H179.498V-1.00466L178.253 -0.690259L178.498 0.279297ZM191.828 23.0723L192.448 23.8571L194.072 22.5743L192.058 22.099L191.828 23.0723ZM189.221 22.457H188.221V23.2485L188.991 23.4303L189.221 22.457ZM189.221 20.0254V19.0254H188.221V20.0254H189.221ZM200.969 20.0254H201.969V19.0254H200.969V20.0254ZM200.969 22.457L201.115 23.4463L201.969 23.3204V22.457H200.969ZM196.398 23.1309L196.253 22.1416L195.995 22.1795L195.789 22.3379L196.398 23.1309ZM184.006 32.6523L183.397 31.8594L182.499 32.5487L183.294 33.3544L184.006 32.6523ZM196.311 45.1328L195.598 45.8349L195.713 45.9508L195.858 46.0245L196.311 45.1328ZM198.215 46.0996L197.762 46.9913L197.907 47.065L198.068 47.0888L198.215 46.0996ZM201.379 46.5684H202.379V45.7056L201.525 45.5792L201.379 46.5684ZM201.379 49V50H202.379V49H201.379ZM193.146 49L192.412 49.679L192.709 50H193.146V49ZM178.732 33.4141L178.113 32.6293L177.264 33.2993L177.998 34.093L178.732 33.4141ZM178.32 46.8785L182.041 47.5524L182.397 45.5844L178.676 44.9105L178.32 46.8785ZM181.219 46.5684V49H183.219V46.5684H181.219ZM182.219 48H169.914V50H182.219V48ZM170.914 49V46.5684H168.914V49H170.914ZM170.088 47.5531L173.897 46.8792L173.548 44.9098L169.74 45.5837L170.088 47.5531ZM174.723 45.8945V5.55273H172.723V45.8945H174.723ZM173.911 4.57073L170.103 3.83831L169.725 5.80232L173.534 6.53474L173.911 4.57073ZM170.914 4.82031V2.44727H168.914V4.82031H170.914ZM170.159 3.41682L178.743 1.24885L178.253 -0.690259L169.669 1.47771L170.159 3.41682ZM177.498 0.279297V45.8945H179.498V0.279297H177.498ZM192.058 22.099L189.45 21.4838L188.991 23.4303L191.598 24.0455L192.058 22.099ZM190.221 22.457V20.0254H188.221V22.457H190.221ZM189.221 21.0254H200.969V19.0254H189.221V21.0254ZM199.969 20.0254V22.457H201.969V20.0254H199.969ZM200.823 21.4677L196.253 22.1416L196.544 24.1202L201.115 23.4463L200.823 21.4677ZM195.789 22.3379L183.397 31.8594L184.615 33.4453L197.008 23.9238L195.789 22.3379ZM183.294 33.3544L195.598 45.8349L197.023 44.4307L184.718 31.9503L183.294 33.3544ZM195.858 46.0245L197.762 46.9913L198.668 45.2079L196.763 44.2411L195.858 46.0245ZM198.068 47.0888L201.232 47.5576L201.525 45.5792L198.361 45.1104L198.068 47.0888ZM200.379 46.5684V49H202.379V46.5684H200.379ZM201.379 48H193.146V50H201.379V48ZM193.881 48.321L179.467 32.7351L177.998 34.093L192.412 49.679L193.881 48.321ZM179.352 34.1989L192.448 23.8571L191.208 22.2875L178.113 32.6293L179.352 34.1989Z"
        fill="black" mask="url(#path-1-outside-1_93_13)" />
</svg>